<?xml version="1.0" encoding="UTF-8"?>
<svg version="1.1" xmlns="http://www.w3.org/2000/svg" width="512" height="512">
<path d="M0 0 C2.46579029 2.18727482 4.88236755 4.41553824 7.28125 6.67578125 C7.88324219 7.22492187 8.48523438 7.7740625 9.10546875 8.33984375 C28.11322598 26.32853707 40.06081874 52.09347481 44.28125 77.67578125 C44.55388672 79.21878906 44.55388672 79.21878906 44.83203125 80.79296875 C46.6647816 96.63430656 46.12616731 112.47164193 41.28125 127.67578125 C41.07709473 128.37606445 40.87293945 129.07634766 40.66259766 129.79785156 C25.40385875 181.95794462 -9.43582388 228.8061351 -39.27630615 273.51412964 C-42.03202425 277.64385883 -44.78531539 281.77520639 -47.5390625 285.90625 C-48.74608431 287.71680317 -49.95311566 289.52734998 -51.16015625 291.33789062 C-51.76617676 292.24692139 -52.37219727 293.15595215 -52.99658203 294.0925293 C-54.84798177 296.86962891 -56.69938151 299.64672852 -58.55078125 302.42382812 C-59.45301422 303.77772141 -59.45301422 303.77772141 -60.37347412 305.15896606 C-61.55461403 306.92995122 -62.73708067 308.70005235 -63.92095947 310.46920776 C-66.37594927 314.14054267 -68.82105722 317.81420289 -71.19042969 321.54150391 C-71.87782227 322.61319824 -72.56521484 323.68489258 -73.2734375 324.7890625 C-73.83272949 325.68020752 -74.39202148 326.57135254 -74.96826172 327.48950195 C-77.68003504 330.87638202 -80.37877734 332.47621085 -84.65625 333.11328125 C-88.6574354 332.54168334 -90.53428858 331.17214297 -93.71875 328.67578125 C-95.48439905 326.21806875 -97.01365469 323.84052944 -98.53125 321.23828125 C-104.65157996 311.1644336 -111.22253481 301.42448868 -117.84375 291.67578125 C-118.94354845 290.05375774 -120.04315749 288.43160579 -121.14257812 286.80932617 C-122.78024396 284.3928527 -124.4179436 281.97640276 -126.05618286 279.56031799 C-137.88546156 262.1097046 -149.63986794 244.61554538 -160.71875 226.67578125 C-161.35635254 225.64936523 -161.99395508 224.62294922 -162.65087891 223.56542969 C-172.96951199 206.92527612 -182.75601252 190.0961619 -191.71875 172.67578125 C-192.52119141 171.12793945 -192.52119141 171.12793945 -193.33984375 169.54882812 C-204.76881803 147.31961287 -215.16242749 123.46426847 -215.03125 98.11328125 C-215.02561035 96.96794922 -215.0199707 95.82261719 -215.01416016 94.64257812 C-214.52273227 60.05773227 -198.92796296 28.37808926 -174.57226562 4.16308594 C-158.12455946 -11.63941133 -138.48106307 -21.13230149 -116.71875 -27.32421875 C-115.47609375 -27.68644531 -114.2334375 -28.04867188 -112.953125 -28.421875 C-73.6167497 -37.73610483 -30.34679895 -25.94302496 0 0 Z M-135.296875 55.6015625 C-140.20792991 61.87047531 -143.93841405 68.21793894 -146.71875 75.67578125 C-147.19634766 76.84367187 -147.19634766 76.84367187 -147.68359375 78.03515625 C-152.88121482 93.07711954 -150.94864578 112.11602116 -144.20581055 126.22851562 C-135.94519802 142.5249899 -122.54070698 154.29240669 -105.35546875 160.48828125 C-88.6526215 165.94227219 -71.69793252 164.35931075 -55.66796875 157.25390625 C-39.5036389 148.60438405 -27.91321561 134.89036357 -21.71875 117.67578125 C-16.4884506 99.43649832 -19.00611991 80.62787906 -28.09375 64.17578125 C-37.66070569 48.99566526 -52.29443017 38.2481205 -69.71875 33.67578125 C-94.27693252 28.60089671 -118.70782099 36.7754997 -135.296875 55.6015625 Z " fill="#000000" transform="translate(340.71875,30.32421875)"/>
<path d="M0 0 C0.8859082 0.2557782 1.77181641 0.5115564 2.68457031 0.77508545 C10.84016395 3.15351144 18.95431712 5.67665623 27.05422497 8.23764324 C32.47506335 9.95154871 37.90095011 11.62006073 43.36767578 13.18212891 C83.13807217 24.59092664 83.13807217 24.59092664 90.54116535 37.61855221 C93.20579129 42.8944568 94.94551772 48.44357316 96.52941895 54.12846375 C98.45338476 60.04340552 101.61843001 65.23006015 104.78833008 70.55200195 C105.83442864 72.37256754 106.87903712 74.19399149 107.92114258 76.0168457 C109.40649014 78.57200699 110.82777907 80.81249509 112.72234726 83.0935154 C115.6390876 87.49845674 115.20387511 92.16358046 115.14434814 97.28256226 C115.14776584 98.35757952 115.15118354 99.43259679 115.15470481 100.54019034 C115.16129362 104.14254329 115.13928998 107.74415123 115.11743164 111.34643555 C115.11630339 113.92856834 115.11693659 116.51070242 115.11920166 119.09283447 C115.12129719 124.65203946 115.10876696 130.21105639 115.08625031 135.77021408 C115.05371651 143.80775033 115.04332189 151.84519581 115.03829834 159.88279076 C115.02954784 172.92378377 115.00293894 185.9646766 114.96508789 199.00561523 C114.92836144 211.67227681 114.90005279 224.33891115 114.88305664 237.00561523 C114.88200575 237.78663173 114.88095485 238.56764824 114.87987211 239.3723319 C114.87465189 243.29053459 114.86959708 247.20873748 114.8646245 251.12694049 C114.82317009 283.62286724 114.75272837 316.11867118 114.66333008 348.61450195 C110.2909409 348.06698812 106.25331739 347.31231636 102.07174683 345.92668152 C101.00916656 345.57769302 99.9465863 345.22870453 98.85180664 344.86914062 C97.70663574 344.48628906 96.56146484 344.1034375 95.3815918 343.70898438 C94.15965118 343.30561356 92.93771057 342.90224274 91.67874146 342.48664856 C88.34228273 341.38480523 85.00841603 340.2753158 81.6751647 339.1638124 C78.88749117 338.23486549 76.0986834 337.30934919 73.30990994 336.38371068 C66.7303442 334.19963179 60.15299302 332.00897647 53.5769043 329.81445312 C46.80065551 327.55328748 40.02042819 325.30436896 33.23819149 323.06123465 C27.40535276 321.13155289 21.57525335 319.19375387 15.74723256 317.24956971 C12.27062932 316.08992871 8.79304237 314.93349104 5.31270981 313.78508568 C1.43323641 312.50456951 -2.44039707 311.20720255 -6.3137207 309.90820312 C-7.46294006 309.53142426 -8.61215942 309.15464539 -9.79620361 308.76644897 C-21.78854898 304.71074383 -21.78854898 304.71074383 -24.33666992 299.61450195 C-24.43390455 297.99851603 -24.46765833 296.37853654 -24.470891 294.75963116 C-24.47534884 293.72764746 -24.47980669 292.69566377 -24.48439962 291.63240784 C-24.48421525 290.48992343 -24.48403089 289.34743902 -24.48384094 288.17033386 C-24.48751763 286.96342134 -24.49119432 285.75650882 -24.49498242 284.5130232 C-24.50412142 281.15231543 -24.5087216 277.79165655 -24.51137173 274.43094099 C-24.51527033 270.81052538 -24.52484893 267.19012397 -24.53358459 263.56971741 C-24.55336101 254.8214752 -24.56341644 246.07323181 -24.57231238 237.32497284 C-24.57669313 233.20783647 -24.58206047 229.0907014 -24.58730125 224.97356606 C-24.60431427 211.29187251 -24.61880941 197.61017978 -24.62605 183.92847729 C-24.62795997 180.37679735 -24.62988029 176.82511741 -24.63183594 173.2734375 C-24.63231968 172.39065808 -24.63280342 171.50787867 -24.63330182 170.59834836 C-24.64160573 156.29139029 -24.66694839 141.98451573 -24.69941662 127.67759415 C-24.7324608 112.9975139 -24.75049634 98.31747613 -24.75369424 83.63735849 C-24.75586173 75.39152462 -24.76464524 67.14581256 -24.79015541 58.90001488 C-24.81182635 51.87887742 -24.81993068 44.85789135 -24.81018863 37.83672424 C-24.80563345 34.25327605 -24.80760018 30.67014041 -24.82695007 27.08673477 C-24.84773434 23.20423253 -24.8376301 19.32216453 -24.82441711 15.43962097 C-24.83538636 14.30382872 -24.84635561 13.16803647 -24.85765725 11.99782628 C-24.7947771 4.37819734 -24.7947771 4.37819734 -22.43118572 0.43793201 C-16.11554624 -5.06029669 -7.28841356 -2.18413372 0 0 Z " fill="#000000" transform="translate(48.336669921875,157.385498046875)"/>
<path d="M0 0 C9.69267889 1.66871911 19.07952744 5.23051356 28.375 8.375 C29.93805572 8.90002345 31.5012089 9.42475683 33.06445312 9.94921875 C46.48062911 14.45790861 59.87360789 19.03589719 73.25927734 23.63427734 C74.01566498 23.89381195 74.77205261 24.15334656 75.55136108 24.42074585 C77.01743429 24.92485962 78.48281024 25.43100657 79.94741821 25.93936157 C83.15672963 27.04923266 86.36004331 28.10820761 89.61328125 29.0859375 C90.67933594 29.40820312 91.74539063 29.73046875 92.84375 30.0625 C93.75318359 30.32160156 94.66261719 30.58070313 95.59960938 30.84765625 C98.97179087 32.46652287 100.0619395 33.74059081 102 37 C102.6065922 40.92844028 102.54352512 44.8299024 102.5146637 48.79820251 C102.52160922 50.00697274 102.52855475 51.21574297 102.53571075 52.4611426 C102.55084539 55.81343672 102.54802873 59.16484435 102.53755772 62.51709878 C102.53056975 66.13342229 102.54656057 69.74965475 102.55955505 73.36595154 C102.58120732 80.44933804 102.58106503 87.53256396 102.57292951 94.61597269 C102.56663181 100.37287395 102.56776443 106.12972835 102.57420158 111.8866291 C102.57510324 112.70572624 102.57600489 113.52482338 102.57693387 114.36874165 C102.57878506 116.03269161 102.58064762 117.69664155 102.58252143 119.36059148 C102.59910425 134.96762775 102.5903767 150.57457366 102.57353585 166.18160451 C102.55883933 180.46186936 102.57346572 194.74192379 102.60230602 209.02216154 C102.6316949 223.68315267 102.64267373 238.34404667 102.63312382 253.00506598 C102.63210126 254.66322901 102.63110665 256.32139206 102.6301403 257.97955513 C102.62966391 258.79541256 102.62918752 259.61126999 102.6286967 260.45185037 C102.62653184 266.20142193 102.63634045 271.95090162 102.65091133 277.7004528 C102.66842244 284.70800013 102.6683351 291.7152792 102.64555968 298.72281592 C102.63440596 302.2983538 102.63127974 305.87341884 102.64986038 309.44893646 C102.66974101 313.324477 102.65090567 317.19927619 102.62818909 321.07481384 C102.64002482 322.20564689 102.65186054 323.33647994 102.66405493 324.50158066 C102.56267858 332.98860373 102.56267858 332.98860373 99.74207783 336.70646763 C96.06946967 339.77831541 94.44403301 339.74651313 89.84918594 339.45173645 C84.37846444 338.58435736 79.24984268 336.84855763 74.02294922 335.05273438 C72.75098475 334.62780408 71.47857617 334.20420124 70.20576477 333.78181458 C66.77830486 332.64027788 63.35729772 331.48044923 59.9372077 330.31704903 C56.35207352 329.10105864 52.76120455 327.90224371 49.17092896 326.70153809 C42.38501623 324.42923845 35.6043445 322.14170329 28.82545483 319.84854841 C21.10264273 317.23692105 13.37409248 314.64248396 5.64503074 312.04942226 C-10.24307502 306.71861676 -26.12389435 301.36644126 -42 296 C-42 291.6149161 -41.57614961 291.19442551 -39 288 C-37.72906692 284.18720075 -37.89054025 280.63303257 -37.92926025 276.66300964 C-37.93349463 275.80208861 -37.93772901 274.94116758 -37.9420917 274.05415803 C-37.95197089 272.16280147 -37.96417739 270.27145602 -37.97837639 268.38012695 C-38.00951895 264.22398711 -38.02958077 260.0678115 -38.05063105 255.91161025 C-38.06215691 253.67164728 -38.07429811 251.43168742 -38.08700705 249.19173086 C-38.13318229 240.94286678 -38.15848498 232.69412529 -38.17108154 224.44514465 C-38.17383335 222.64817738 -38.17383335 222.64817738 -38.17664075 220.81490773 C-38.18373889 215.86912988 -38.19004409 210.92335151 -38.19573832 205.97757185 C-38.21251707 191.9598402 -38.24999672 177.94292491 -38.35302734 163.92553711 C-38.43474146 152.7904777 -38.46984016 141.65634733 -38.45151305 130.52098829 C-38.44352197 124.63525986 -38.45805422 118.75164151 -38.5291214 112.86629295 C-39.05946871 66.71532951 -39.05946871 66.71532951 -25.54061508 50.90741348 C-23.12465909 47.91625295 -21.44169312 44.60284287 -19.73046875 41.17578125 C-19.13572754 40.03399414 -18.54098633 38.89220703 -17.92822266 37.71582031 C-17.35378418 36.59272461 -16.7793457 35.46962891 -16.1875 34.3125 C-15.87737976 33.71111206 -15.56725952 33.10972412 -15.2477417 32.4901123 C-10.48799693 23.24984008 -6.16042981 13.89378951 -2.3203125 4.234375 C-1 1 -1 1 0 0 Z " fill="#000000" transform="translate(386,173)"/>
<path d="M0 0 C3.46971892 3.34491581 5.94239866 6.88045063 8.4140625 10.9921875 C14.47657997 20.87658724 20.9223817 30.49259214 27.375 40.125 C28.61189361 41.97526279 29.84854426 43.82568801 31.08496094 45.67626953 C33.55589997 49.37408667 36.02795617 53.07115265 38.50097656 56.76757812 C43.00923121 63.50729703 47.50636994 70.25440876 52.0022583 77.00238037 C53.20356178 78.80530519 54.40516796 80.60802774 55.60693359 82.41064453 C55.97857635 82.96835541 56.35021912 83.52606628 56.73312378 84.10067749 C57.79878871 85.69820964 58.86713046 87.29395515 59.93554688 88.88964844 C61.35465285 91.02770545 62.7560925 93.17756065 64.14257812 95.33691406 C64.83287109 96.40393555 65.52316406 97.47095703 66.234375 98.5703125 C66.83991211 99.51922363 67.44544922 100.46813477 68.06933594 101.44580078 C71.54691339 106.04651086 75.33942116 108.82516288 81 110 C87.3288539 110.09291955 92.20299691 109.37987238 97 105 C102.32246744 98.60839063 106.60333851 91.50212845 110.94352722 84.43028259 C113.95340047 79.56726284 117.14935423 74.88745388 120.48828125 70.24609375 C127.38880304 60.55676423 133.92021532 50.63689264 140.4375 40.6875 C141.5733145 38.95881798 142.70938175 37.230302 143.84570312 35.50195312 C148.48913648 28.433393 153.12728129 21.36217908 157.70751953 14.25244141 C158.60713158 12.8586602 158.60713158 12.8586602 159.5249176 11.4367218 C160.67963297 9.64604663 161.83137998 7.85345308 162.97984314 6.0587616 C163.49317703 5.26311295 164.00651093 4.46746429 164.53540039 3.64770508 C165.21500572 2.58837517 165.21500572 2.58837517 165.90834045 1.50764465 C166.2685881 1.01012192 166.62883575 0.51259918 167 0 C167.33 0 167.66 0 168 0 C168.09339221 25.46883601 168.16395418 50.93764639 168.20724869 76.40661907 C168.22788433 88.23199369 168.25602417 100.05726198 168.30175781 111.88256836 C168.34159478 122.18807905 168.36742552 132.49351276 168.37635398 142.79909831 C168.38157402 148.25714542 168.39386402 153.71497225 168.42292023 159.17294884 C168.4500396 164.30864096 168.45845198 169.44402175 168.45243073 174.57977867 C168.45353252 176.46600027 168.46150702 178.35223213 168.4768219 180.23839188 C168.49669554 182.81191504 168.49194908 185.38425956 168.48101807 187.95780945 C168.49849512 189.07990194 168.49849512 189.07990194 168.51632524 190.22466296 C168.47519169 193.80233067 168.09538417 195.84788446 166.17806721 198.90555859 C163.32180675 201.65215436 160.3070326 202.71939481 156.60717773 203.88720703 C155.85624659 204.13912685 155.10531544 204.39104668 154.3316288 204.65060043 C151.80792982 205.49334415 149.27723544 206.31271981 146.74609375 207.1328125 C144.92607859 207.73597709 143.10662974 208.34085276 141.28770447 208.94729614 C137.3208412 210.26802837 133.35130236 211.58029656 129.38006592 212.88781738 C122.79755573 215.06038934 116.2318755 217.28125756 109.66845703 219.51074219 C99.08906376 223.10345869 88.50297419 226.67554841 77.91059303 230.22979355 C71.81913776 232.27426853 65.72981894 234.32469481 59.64477539 236.38818359 C53.63023233 238.42756948 47.61091865 240.45222725 41.58794975 242.46658707 C39.32529042 243.2260893 37.0643538 243.99074563 34.8052845 244.76086044 C31.6742882 245.827192 28.53750416 246.87445048 25.39868164 247.91748047 C24.48916748 248.23211243 23.57965332 248.54674438 22.64257812 248.87091064 C17.03540812 250.70707394 10.86085935 252.51367159 5 251 C2.12140442 249.00315464 0.31127809 247.44167035 -0.44887799 243.92104197 C-0.63309642 241.28761562 -0.64205795 238.69928319 -0.60127258 236.05961609 C-0.60554471 235.05079008 -0.60981683 234.04196408 -0.61421841 233.00256759 C-0.62246224 229.6180424 -0.59493899 226.23475305 -0.56762695 222.8503418 C-0.56621679 220.42599008 -0.56700783 218.00163624 -0.56983948 215.57728577 C-0.5709785 210.35578626 -0.5567863 205.13456684 -0.52865028 199.91315269 C-0.48799712 192.36391877 -0.47499126 184.81483586 -0.46871033 177.26550434 C-0.45776995 165.01700511 -0.42450284 152.76867246 -0.37719727 140.52026367 C-0.33129496 128.62281121 -0.29590637 116.72540401 -0.2746582 104.82788086 C-0.27334459 104.09439356 -0.27203097 103.36090627 -0.27067754 102.60519209 C-0.26415231 98.92546402 -0.25783378 95.24573562 -0.25161803 91.56600702 C-0.19979304 61.04388542 -0.11136293 30.52196584 0 0 Z " fill="#000000" transform="translate(172,261)"/>
<path d="M0 0 C11.26505978 9.78012008 20.07984478 22.05515241 21.48657227 37.32397461 C22.32244552 55.64042452 19.09659123 69.86281414 7.078125 84.11328125 C-3.85820353 95.80194111 -18.70403245 101.64190583 -34.546875 102.23828125 C-50.0110037 101.79854299 -64.4339709 96.10766999 -75.5546875 85.296875 C-88.45679718 71.26178436 -91.5622559 55.90904039 -90.91796875 37.49853516 C-90.52168547 31.94529947 -88.9651454 27.02573331 -86.734375 21.92578125 C-86.38375 21.12269531 -86.033125 20.31960937 -85.671875 19.4921875 C-78.48419095 5.09186216 -65.46121685 -4.45502473 -50.66796875 -9.82421875 C-33.61652462 -14.62932238 -13.9620893 -10.59124202 0 0 Z " fill="#000000" transform="translate(290.734375,83.07421875)"/>
</svg>
