<svg viewBox="0 0 512 512" xmlns="http://www.w3.org/2000/svg" fill="currentColor">
  <path d="M32 224L76.8 128H435.2L480 224V368C480 396.64 457.6 419.2 429.28 419.2H403.68C375.36 419.2 352.96 396.64 352.96 368V352H159.04V368C159.04 396.64 136.64 419.2 108.32 419.2H82.72C54.4 419.2 32 396.64 32 368V224ZM117.12 272C133.76 272 147.68 285.92 147.68 302.56C147.68 319.2 133.76 333.12 117.12 333.12C100.48 333.12 86.56 319.2 86.56 302.56C86.56 285.92 100.48 272 117.12 272ZM394.88 272C411.52 272 425.44 285.92 425.44 302.56C425.44 319.2 411.52 333.12 394.88 333.12C378.24 333.12 364.32 319.2 364.32 302.56C364.32 285.92 378.24 272 394.88 272Z"/>
</svg>