<svg viewBox="0 0 512 512" xmlns="http://www.w3.org/2000/svg" fill="currentColor">
  <path d="M32 64C32 83.88 47.88 99.76 67.76 99.76H91.12L121.44 403.44C126.64 460.8 173.84 505.44 231.2 505.44H432C445.44 505.44 455.36 495.52 455.36 482.08C455.36 468.64 445.44 458.72 432 458.72H231.2C199.68 458.72 173.04 435.76 169.84 404.88L139.52 99.76H432C445.44 99.76 455.36 89.84 455.36 76.4C455.36 62.96 445.44 53.04 432 53.04H67.76C47.88 53.04 32 68.92 32 88.8V64ZM136 192C122.56 192 112.64 201.92 112.64 215.36V371.04C112.64 384.48 122.56 394.4 136 394.4C149.44 394.4 159.36 384.48 159.36 371.04V215.36C159.36 201.92 149.44 192 136 192ZM256 192C242.56 192 232.64 201.92 232.64 215.36V371.04C232.64 384.48 242.56 394.4 256 394.4C269.44 394.4 279.36 384.48 279.36 371.04V215.36C279.36 201.92 269.44 192 256 192ZM376 192C362.56 192 352.64 201.92 352.64 215.36V371.04C352.64 384.48 362.56 394.4 376 394.4C389.44 394.4 399.36 384.48 399.36 371.04V215.36C399.36 201.92 389.44 192 376 192Z"/>
</svg>