<svg viewBox="0 0 512 512" xmlns="http://www.w3.org/2000/svg" fill="currentColor">
  <path d="M96 32C60.65 32 32 60.65 32 96V416C32 451.35 60.65 480 96 480H176.16C181.44 480 184 477.44 184 472.16V454.4C184 449.12 181.44 446.56 176.16 446.56H96C82.08 446.56 70.4 434.88 70.4 420.96V111.04C70.4 97.12 82.08 85.44 96 85.44H176.16C181.44 85.44 184 82.88 184 77.6V59.84C184 54.56 181.44 32 176.16 32H96ZM410.24 147.84C406.08 143.68 399.36 143.68 395.2 147.84C391.04 152 391.04 158.72 395.2 162.88C412.8 180.48 425.6 204.8 425.6 230.4C425.6 256 412.8 280.32 395.2 297.92C391.04 302.08 391.04 308.8 395.2 312.96C399.36 317.12 406.08 317.12 410.24 312.96C431.36 291.84 445.76 261.76 445.76 230.4C445.76 199.04 431.36 168.96 410.24 147.84ZM352 192C347.84 187.84 341.12 187.84 336.96 192C332.8 196.16 332.8 202.88 336.96 207.04C346.56 216.64 352 230.4 352 245.76C352 261.12 346.56 274.88 336.96 284.48C332.8 288.64 332.8 295.36 336.96 299.52C341.12 303.68 347.84 303.68 352 299.52C365.76 285.76 374.4 268.16 374.4 245.76C374.4 223.36 365.76 205.76 352 192ZM282.24 262.4C273.6 252.8 268.32 239.04 268.32 224C268.32 209.28 273.6 195.52 282.24 185.6C286.4 181.44 286.4 174.72 282.24 170.56C278.08 166.4 271.36 166.4 267.2 170.56C255.2 183.36 248.48 200.96 248.48 224C248.48 247.04 255.2 264.64 267.2 277.44C271.36 281.6 278.08 281.6 282.24 277.44C286.4 273.28 286.4 266.56 282.24 262.4Z"/>
</svg>