<?xml version="1.0" encoding="UTF-8"?>
<svg version="1.1" xmlns="http://www.w3.org/2000/svg" width="512" height="512">
<path d="M0 0 C2.93518639 3.19459835 4.32429838 7.12104867 5.92984009 11.1003418 C6.32156906 12.03267136 6.71329803 12.96500092 7.11689758 13.92558289 C8.39560257 16.9789188 9.6508951 20.04130949 10.90640259 23.10424805 C11.79860283 25.24602795 12.69242059 27.38713471 13.58779907 29.52758789 C15.39717158 33.85913638 17.19788279 38.19411674 18.99087524 42.5324707 C21.21601071 47.9132111 23.46456359 53.28359687 25.73062134 58.6472168 C26.21716942 59.79896645 26.21716942 59.79896645 26.71354675 60.97398376 C27.35593807 62.4943008 27.99841836 64.01458024 28.64099121 65.53482056 C30.24973995 69.34506917 31.85114853 73.15839998 33.45327759 76.97143555 C38.07146082 87.9582813 42.70747855 98.93759032 47.34390259 109.91674805 C47.72483063 110.81895081 48.10575867 111.72115356 48.49822998 112.6506958 C53.10215113 123.55471301 57.71094043 134.45666403 62.32315063 145.35717773 C62.82673851 146.54741547 63.33032639 147.7376532 63.8491745 148.96395874 C65.07656147 151.86489798 66.30397124 154.76582758 67.53140259 157.66674805 C68.35708929 157.73705671 69.18277599 157.80736538 70.03348351 157.87980461 C90.14948549 159.59311133 110.26494155 161.31270396 130.37981224 163.0392437 C140.10732857 163.87404352 149.83501659 164.70673623 159.56314087 165.53442383 C168.04485418 166.25606981 176.52621434 166.98171496 185.0071789 167.71210968 C189.4953315 168.09849757 193.98363259 168.48291784 198.47236252 168.86254501 C202.70310523 169.2204171 206.93335332 169.58366203 211.16329193 169.95091248 C212.71020194 170.08428531 214.25727818 170.2157472 215.8045311 170.34508133 C238.4618302 172.24217505 238.4618302 172.24217505 243.15640259 176.60424805 C246.00206655 180.51805522 246.46070085 184.20173415 246.16812134 188.9675293 C245.02837772 193.79920318 242.13893898 196.42772344 238.53140259 199.66674805 C237.39058228 200.74375977 237.39058228 200.74375977 236.22671509 201.8425293 C231.10858293 206.57639275 225.73522091 210.96816079 220.31655884 215.3503418 C216.52031214 218.50766899 212.913569 221.85475396 209.28140259 225.19799805 C205.7195603 228.39556101 202.00574426 231.38063147 198.28140259 234.38549805 C194.49234852 237.52869062 190.89870907 240.86833399 187.27749634 244.2019043 C184.61265092 246.59382102 181.88308434 248.85929688 179.09390259 251.10424805 C175.09916272 254.32617906 171.2858591 257.673303 167.53140259 261.16674805 C162.92135923 265.45629917 158.15357303 269.47085477 153.24624634 273.4206543 C150.42466764 275.75505394 147.72549547 278.18665403 145.03140259 280.66674805 C141.47470015 283.94093228 137.85978448 287.07317238 134.09390259 290.10424805 C132.23871571 291.62383672 130.38460777 293.14474325 128.53140259 294.66674805 C127.9814563 295.10664063 127.43151001 295.5465332 126.86489868 295.99975586 C125.14779483 297.38450138 123.46358862 298.80239603 121.78140259 300.22924805 C121.24329956 300.65197998 120.70519653 301.07471191 120.15078735 301.51025391 C118.41674017 302.92543071 118.41674017 302.92543071 116.53140259 305.66674805 C116.92478326 311.96965707 118.42921511 318.03949132 119.87295532 324.17382812 C120.11063126 325.19832565 120.34830719 326.22282318 120.59318542 327.27836609 C121.37993129 330.66524774 122.17244794 334.0507512 122.96499634 337.4362793 C123.52289395 339.83281799 124.08042792 342.22944136 124.63761902 344.62614441 C126.11141418 350.96113891 127.59008177 357.29498637 129.0697937 363.62860107 C130.24623022 368.6669694 131.41977996 373.70600743 132.59296227 378.74513435 C133.45752856 382.45866767 134.32264145 386.17207336 135.18780518 389.88546753 C136.32811834 394.78052952 137.46655958 399.6760218 138.60375977 404.57180786 C140.99924569 414.87505261 143.40163102 425.17571224 145.89012432 435.45695591 C146.85705153 439.45429143 147.81398638 443.45398849 148.7702198 447.45389366 C149.21130003 449.28504424 149.65768844 451.1149259 150.10986137 452.94336891 C150.72596794 455.43500127 151.32397735 457.93035861 151.91836548 460.42724609 C152.09915964 461.13643126 152.2799538 461.84561642 152.46622658 462.57629204 C153.75219157 468.1011556 154.30667277 474.31332178 151.56733799 479.48783398 C148.76048953 483.19626789 146.05739146 484.86804413 141.53140259 485.66674805 C133.22372242 485.69546123 127.41367187 481.37512383 120.59390259 477.04174805 C119.34748398 476.26478753 118.10007052 475.48942092 116.85171509 474.71557617 C114.30172755 473.13384051 111.75549785 471.54630812 109.21157837 469.95483398 C103.86269565 466.61803464 98.44682465 463.39401503 93.03140259 460.16674805 C83.7394455 454.60749528 74.48207046 448.99277965 65.23440552 443.36032104 C55.45958876 437.41030609 45.62976459 431.55656649 35.78140259 425.72924805 C19.1604521 415.89357914 19.1604521 415.89357914 11.34390259 410.97924805 C10.74505249 410.60380859 10.14620239 410.22836914 9.52920532 409.84155273 C6.62379565 408.01177688 3.74214177 406.14955236 0.87515259 404.26049805 C0.27984741 403.87595459 -0.31545776 403.49141113 -0.92880249 403.09521484 C-2.52587385 402.06338259 -4.11294692 401.01611904 -5.69906616 399.9675293 C-9.0074055 398.41368303 -10.02181077 398.70070151 -13.46859741 399.66674805 C-15.65182971 400.68357714 -15.65182971 400.68357714 -17.78500366 402.01049805 C-18.61685181 402.50598145 -19.44869995 403.00146484 -20.30575562 403.51196289 C-21.20511841 404.05804199 -22.1044812 404.60412109 -23.03109741 405.16674805 C-23.98782349 405.73989746 -24.94454956 406.31304687 -25.93026733 406.90356445 C-29.11519216 408.81569056 -32.29258112 410.73986442 -35.46859741 412.66674805 C-36.57912476 413.33931641 -37.6896521 414.01188477 -38.83383179 414.70483398 C-43.51505673 417.54047028 -48.19419756 420.37950981 -52.86923218 423.2253418 C-60.55170884 427.90166032 -68.25155032 432.54759689 -75.96859741 437.16674805 C-85.25602297 442.72595665 -94.51140776 448.336346 -103.75552368 453.96713257 C-115.11038662 460.87961506 -126.53686636 467.66927205 -137.98641968 474.42358398 C-138.64147995 474.81082138 -139.29654022 475.19805878 -139.97145081 475.59703064 C-141.74497931 476.64538101 -143.51959055 477.69189908 -145.29428101 478.73828125 C-147.477776 480.06480232 -149.62904209 481.44538459 -151.75057983 482.86889648 C-155.36744355 485.26129605 -158.1751832 485.87435995 -162.46859741 485.66674805 C-167.61401422 484.123123 -170.75754105 482.35896099 -173.46859741 477.66674805 C-175.28957556 469.99153213 -173.36196881 463.25114798 -171.55062866 455.72143555 C-171.22128939 454.3084051 -170.89316368 452.89509134 -170.56614685 451.48152161 C-169.85813734 448.43282524 -169.14162489 445.38629919 -168.41848755 442.34115601 C-167.2668026 437.49049416 -166.13531381 432.6352531 -165.00619507 427.77929688 C-162.51253001 417.07066358 -159.99185341 406.36844106 -157.46859741 395.66674805 C-156.5389697 391.7235757 -155.60943989 387.78038029 -154.68002319 383.8371582 C-154.32962494 382.35063814 -154.32962494 382.35063814 -153.97214794 380.83408737 C-152.10371642 372.90485111 -150.24214538 364.97401666 -148.38400745 357.04236221 C-147.03120707 351.27145573 -145.66774008 345.50320091 -144.29611492 339.73674107 C-143.44048244 336.13096268 -142.59325682 332.52324601 -141.74816704 328.91498375 C-141.3521446 327.23220663 -140.95254303 325.55026731 -140.54915047 323.86924171 C-139.99703919 321.56646724 -139.45764738 319.26106336 -138.92123413 316.95458984 C-138.67532642 315.94945249 -138.67532642 315.94945249 -138.42445087 314.92400932 C-137.57323359 311.19511991 -137.24672338 308.32455091 -138.46859741 304.66674805 C-140.21994876 302.73381847 -141.88134667 301.1024888 -143.84359741 299.41674805 C-144.6528064 298.69841797 -144.6528064 298.69841797 -145.47836304 297.96557617 C-149.77886711 294.17811469 -154.22304841 290.57121276 -158.68734741 286.97924805 C-161.70879077 284.46703671 -164.59299819 281.84272347 -167.46859741 279.16674805 C-172.0786138 274.87717045 -176.84642977 270.86263907 -181.75375366 266.9128418 C-185.53427028 263.78507625 -189.11340616 260.45400921 -192.72250366 257.1315918 C-195.38734908 254.73967507 -198.11691566 252.47419921 -200.90609741 250.22924805 C-205.44095903 246.57168541 -209.72395924 242.72057777 -213.98568726 238.75512695 C-218.09639017 234.95275998 -222.39135325 231.42404213 -226.75375366 227.9128418 C-230.53711418 224.78272338 -234.11890561 221.44913753 -237.73031616 218.1237793 C-240.35019787 215.77298672 -243.0341196 213.55424345 -245.78109741 211.35424805 C-250.37845419 207.64176601 -254.75898326 203.74151218 -259.09359741 199.72924805 C-259.71017212 199.16101318 -260.32674683 198.59277832 -260.96200562 198.00732422 C-265.20042389 194.05071091 -266.64426596 192.23160569 -266.90609741 186.47924805 C-266.84351143 182.50503839 -266.53165563 179.83992218 -264.15609741 176.60424805 C-256.76927785 169.74554002 -243.03761198 170.96389448 -233.44052124 170.15454102 C-231.85267328 170.0167622 -230.26486504 169.87852499 -228.67709351 169.73986816 C-224.39934634 169.36759274 -220.12107732 169.00167232 -215.84268022 168.63695288 C-211.35940153 168.25365874 -206.87663758 167.86443567 -202.39381409 167.4758606 C-193.91949457 166.74219677 -185.44473018 166.01381069 -176.96979016 165.28735363 C-167.31519104 164.45951688 -157.66110722 163.62574603 -148.00706065 162.79149413 C-128.1614697 161.07667561 -108.31524831 159.36925235 -88.46859741 157.66674805 C-85.76743947 151.32361918 -83.06682829 144.98025771 -80.36656189 138.63674927 C-79.45174451 136.4878131 -78.53681105 134.33892635 -77.62174988 132.19009399 C-71.85667821 118.65175208 -66.10952886 105.10618052 -60.40609741 91.54174805 C-60.07196901 90.74712788 -59.73784061 89.95250771 -59.39358711 89.13380814 C-58.44454194 86.87659688 -57.49559995 84.61934228 -56.54672241 82.36206055 C-53.58344138 75.31287402 -50.61386151 68.26636445 -47.64047241 61.22143555 C-47.22952332 60.24753876 -46.81857422 59.27364197 -46.39517212 58.27023315 C-44.33744046 53.39493394 -42.27709568 48.52076538 -40.21176147 43.64868164 C-36.7691803 35.52287106 -33.33942985 27.39513864 -30.03109741 19.21362305 C-29.53456665 17.99835937 -29.03803589 16.7830957 -28.52645874 15.53100586 C-27.65020833 13.37979782 -26.78676971 11.22329781 -25.94003296 9.06030273 C-23.38955654 2.83581592 -20.90369503 -1.26353973 -14.59359741 -4.20825195 C-8.41779213 -4.57153462 -4.75855295 -4.07770063 0 0 Z " fill="#000000" transform="translate(266.4685974121094,15.333251953125)"/>
</svg>
