<?xml version="1.0" encoding="UTF-8"?>
<svg version="1.1" xmlns="http://www.w3.org/2000/svg" width="512" height="512">
<path d="M0 0 C1.94563089 1.66424155 3.82758316 3.33593278 5.69140625 5.0859375 C6.239711 5.59683929 6.78801575 6.10774109 7.35293579 6.63412476 C14.84384237 13.66567783 22.13133076 20.90848197 29.40429688 28.1640625 C31.88486749 30.63482849 34.37592912 33.09470423 36.8671875 35.5546875 C38.47201075 37.15298684 40.07619993 38.75192315 41.6796875 40.3515625 C42.77831619 41.43167099 42.77831619 41.43167099 43.8991394 42.53359985 C56.69193077 55.38137271 64.56525131 70.25291544 65.25 88.5625 C64.99010484 109.90638995 54.66536443 124.73622791 40.06253052 139.01235962 C37.47629697 141.52394714 34.87908727 144.0237237 32.27294922 146.51464844 C18.89879329 159.28178069 18.89879329 159.28178069 13.75 176.625 C14.08135225 192.86126032 26.56843496 202.86608224 37.24389648 213.51855469 C38.5820904 214.86110257 39.91986796 216.20406555 41.25726318 217.54740906 C44.87029049 221.17375985 48.48962687 224.79374914 52.1105907 228.41217327 C55.13929085 231.43979978 58.16500045 234.47040641 61.19077164 237.50095963 C68.3296766 244.65093548 75.47386661 251.79559998 82.62133789 258.93701172 C89.98447577 266.29410308 97.33837239 273.6603403 104.68784088 281.03108478 C111.01129947 287.37217221 117.34056396 293.70742341 123.67446953 300.03807569 C127.45177531 303.81357148 131.22683919 307.59124099 134.99627495 311.37459564 C138.53957372 314.93048992 142.09008474 318.47902316 145.64619446 322.02210426 C146.94679179 323.32034054 148.24485736 324.6211191 149.54013252 325.92466545 C159.02704905 335.4677641 166.94881393 343.01135875 180.8125 344.375 C197.60320163 343.7506882 208.60739718 328.56798189 219.39013672 317.36303711 C228.20656831 308.22065091 237.3964098 299.84247979 249.8125 296.0625 C251.01519531 295.68222656 252.21789062 295.30195313 253.45703125 294.91015625 C268.64170002 291.0093538 284.09801412 292.76177373 298 300 C306.41883772 305.62085853 313.65143336 312.20498963 320.76953125 319.37109375 C321.74408828 320.34362034 322.71908942 321.31570207 323.69450378 322.28736877 C325.71683926 324.30533061 327.73377646 326.3284891 329.74682617 328.35571289 C332.30261545 330.92863732 334.87170934 333.48778737 337.44501209 336.04318142 C339.45386689 338.04110205 341.45540772 340.0462285 343.45493126 342.05348396 C344.8505191 343.45198958 346.25204893 344.84455776 347.65376282 346.23692322 C354.51901341 353.17751693 360.82429942 360.55734038 364.8125 369.5625 C365.19019531 370.38878906 365.56789063 371.21507812 365.95703125 372.06640625 C371.18455949 386.77005308 370.76521727 403.89473583 364.62890625 418.1953125 C353.0175341 441.752197 328.24695025 457.46486524 305 468 C304.38688965 468.27827637 303.7737793 468.55655273 303.14208984 468.84326172 C295.74054683 472.1374752 288.24651108 474.64579424 280.4375 476.75 C279.70684326 476.94875732 278.97618652 477.14751465 278.22338867 477.35229492 C265.58780589 480.58355817 252.97378497 481.41153543 240 481.375 C239.23476013 481.37412384 238.46952026 481.37324768 237.68109131 481.37234497 C206.99850192 481.25697888 176.30592198 472.82053665 151 455 C150.03835938 454.32324219 149.07671875 453.64648438 148.0859375 452.94921875 C133.30416615 442.19710342 120.71999689 428.87598363 107.83068919 415.99073195 C105.25983775 413.4217547 102.68614806 410.8556232 100.11288452 408.2890625 C94.5070573 402.69671851 88.90491965 397.10068859 83.30362082 391.50380945 C79.79903337 388.00199889 76.29371524 384.50092037 72.78827286 380.99996567 C63.05988831 371.28375576 53.3324386 361.56661209 43.60844231 351.84601021 C42.98824579 351.22603326 42.36804928 350.60605631 41.72905893 349.96729218 C41.10750175 349.34595328 40.48594457 348.72461438 39.84555233 348.08444703 C38.5863268 346.82566495 37.32709972 345.56688443 36.06787109 344.30810547 C35.44326988 343.68372569 34.81866868 343.05934591 34.17514016 342.41604553 C24.04860987 332.29346552 13.91533812 322.17766291 3.77915536 312.06474926 C-6.6569456 301.65241081 -17.087364 291.23440781 -27.51217258 280.81076324 C-33.35376083 274.97008846 -39.19770401 269.13181559 -45.04794693 263.2998085 C-50.02670971 258.33651238 -55.00021634 253.36802166 -59.96714033 248.392877 C-62.49628518 245.85985014 -65.02770135 243.32921831 -67.56585693 240.80521774 C-87.11307759 221.36079528 -87.11307759 221.36079528 -95 210 C-95.53810366 209.22491152 -96.07620731 208.44982304 -96.63061714 207.65124702 C-97.86547071 205.83502653 -99.03946245 203.99710264 -100.1875 202.125 C-100.59911377 201.45557373 -101.01072754 200.78614746 -101.43481445 200.09643555 C-116.43813313 175.22151215 -123.22707359 147.51694106 -123.25 118.625 C-123.25067474 117.86300293 -123.25134949 117.10100586 -123.25204468 116.31591797 C-123.23604074 104.94623873 -122.75003698 94.06842095 -120 83 C-119.83902832 82.29665527 -119.67805664 81.59331055 -119.51220703 80.86865234 C-113.90572447 56.59543725 -102.61896174 33.61548676 -86 15 C-85.11538681 13.97178293 -84.23129446 12.94311758 -83.34765625 11.9140625 C-61.72810154 -12.88506302 -27.75942906 -19.62449716 0 0 Z " fill="#000000" transform="translate(123,31)"/>
<path d="M0 0 C2.79735973 0.48056553 5.5624921 1.04281409 8.33544922 1.6484375 C9.36130127 1.86918945 10.38715332 2.08994141 11.4440918 2.31738281 C37.08707886 8.05160399 61.08119377 17.40458799 84.27294922 29.6484375 C84.98515625 30.02049316 85.69736328 30.39254883 86.43115234 30.77587891 C98.03733743 36.87598012 108.77808916 43.79536923 119.27294922 51.6484375 C119.89685547 52.1139502 120.52076172 52.57946289 121.16357422 53.05908203 C130.03471494 59.72902357 138.2929311 66.94007958 146.27294922 74.6484375 C146.89379395 75.24736816 147.51463867 75.84629883 148.15429688 76.46337891 C156.06203497 84.13358795 163.55632652 91.89432079 170.27294922 100.6484375 C171.16694102 101.76735831 172.06150718 102.88582036 172.95654297 104.00390625 C200.05616205 138.39535396 230.33570844 194.07061561 230.58544922 239.5234375 C230.60220703 240.24273437 230.61896484 240.96203125 230.63623047 241.703125 C230.16398211 244.23193878 229.30284993 245.10818497 227.27294922 246.6484375 C222.17607888 247.28554629 222.17607888 247.28554629 219.69482422 245.53515625 C217.68174688 242.86395748 217.25658546 240.34923456 216.52294922 237.0859375 C216.18008132 235.63489883 215.834858 234.18441551 215.48779297 232.734375 C215.20137939 231.52539551 215.20137939 231.52539551 214.90917969 230.29199219 C199.86916918 167.80034454 169.39118729 107.40801478 117.27294922 67.6484375 C116.7312207 67.23029785 116.18949219 66.8121582 115.63134766 66.38134766 C81.74651137 40.33582431 41.79028013 22.14130926 -0.28173828 14.47265625 C-1.76363686 14.19860651 -3.24540653 13.92385892 -4.72705078 13.6484375 C-5.53948242 13.50229004 -6.35191406 13.35614258 -7.18896484 13.20556641 C-7.98786133 13.04878418 -8.78675781 12.89200195 -9.60986328 12.73046875 C-10.32803223 12.59487549 -11.04620117 12.45928223 -11.78613281 12.31958008 C-14.12726384 11.51004936 -15.20729136 10.59282697 -16.72705078 8.6484375 C-17.36690461 3.52960689 -17.36690461 3.52960689 -15.51586914 0.98046875 C-11.38121082 -2.09837604 -4.84899651 -0.62511683 0 0 Z " fill="#000000" transform="translate(281.72705078125,0.3515625)"/>
<path d="M0 0 C32.72461421 6.88649289 63.64320672 21.4169912 88.7890625 43.58203125 C89.76101563 44.4328125 90.73296875 45.28359375 91.734375 46.16015625 C109.87693585 62.27394044 123.7361883 81.02288014 134.7890625 102.58203125 C135.14307129 103.26023926 135.49708008 103.93844727 135.86181641 104.63720703 C144.12184418 120.60297634 149.55329856 137.79189082 153.8515625 155.20703125 C154.175802 156.49432129 154.175802 156.49432129 154.5065918 157.80761719 C155.56780798 162.36651062 156.11129194 165.96844574 154.7890625 170.58203125 C153.1015625 172.51953125 153.1015625 172.51953125 150.7890625 173.58203125 C147.7265625 173.70703125 147.7265625 173.70703125 144.7890625 172.58203125 C141.5111935 166.44033986 140.23120732 159.68049636 138.6015625 152.95703125 C130.50952874 120.92929594 116.13201634 92.05846757 93.7890625 67.58203125 C93.3348291 67.08251953 92.8805957 66.58300781 92.41259766 66.06835938 C67.09592722 38.61891338 32.3632443 21.96038826 -3.59375 13.84375 C-4.55442383 13.62638184 -5.51509766 13.40901367 -6.50488281 13.18505859 C-8.22018415 12.80281443 -9.93808939 12.43193109 -11.65917969 12.07666016 C-16.99348913 10.90820381 -16.99348913 10.90820381 -19.2109375 7.58203125 C-19.0234375 4.01953125 -19.0234375 4.01953125 -18.2109375 0.58203125 C-12.80497039 -3.02194682 -6.14060016 -1.16085551 0 0 Z " fill="#000000" transform="translate(284.2109375,73.41796875)"/>
<path d="M0 0 C26.96378264 6.62717443 50.54004038 22.09752004 65.51123047 45.81005859 C71.31506074 55.41577321 75.38803783 65.69374981 78.640625 76.41015625 C78.95821777 77.44523315 78.95821777 77.44523315 79.28222656 78.5012207 C80.53355148 82.88139084 81.06475703 86.80221985 80.703125 91.34765625 C78.703125 94.34765625 78.703125 94.34765625 75.890625 95.28515625 C72.703125 95.34765625 72.703125 95.34765625 70.15625 93.91015625 C66.78604781 90.38969027 66.25273215 87.08493806 65.265625 82.41015625 C63.30678168 74.16753742 60.69174367 66.86087111 56.703125 59.34765625 C56.20296875 58.35636719 55.7028125 57.36507812 55.1875 56.34375 C44.56600141 36.57023198 25.96103409 22.77584619 4.75 16.03125 C1.41363011 15.06938166 -1.92914607 14.19167765 -5.296875 13.34765625 C-12.03640988 11.57556323 -12.03640988 11.57556323 -14.296875 9.59765625 C-15.69042822 6.46216151 -15.28334549 4.58891642 -14.296875 1.34765625 C-9.51582808 -1.83970837 -5.41655151 -1.07175841 0 0 Z " fill="#000000" transform="translate(280.296875,151.65234375)"/>
</svg>
