<?xml version="1.0" encoding="UTF-8"?>
<svg version="1.1" xmlns="http://www.w3.org/2000/svg" width="512" height="512">
<path d="M0 0 C1.4777123 -0.00322371 2.95542431 -0.00658856 4.43313599 -0.01008606 C7.51418802 -0.01603419 10.59521218 -0.01793037 13.67626953 -0.01733398 C17.58816837 -0.01723244 21.49988541 -0.03089632 25.41174126 -0.04810619 C28.45928743 -0.05932315 31.50679093 -0.06125027 34.55435562 -0.06072426 C35.99498243 -0.06188937 37.43561089 -0.0662265 38.87621689 -0.07405663 C49.90620933 -0.12841701 61.48889541 -0.08594226 71.7578125 4.41796875 C72.64984375 4.794375 73.541875 5.17078125 74.4609375 5.55859375 C81.95586342 9.51745206 88.62430508 14.67883976 95.2578125 19.91796875 C96.84613185 21.16304407 98.4346746 22.40783446 100.0234375 23.65234375 C101.17489258 24.55629883 101.17489258 24.55629883 102.34960938 25.47851562 C105.2217636 27.72685355 108.11288693 29.94901565 111.0078125 32.16796875 C116.35567678 36.27436453 121.68486679 40.40432502 127.0078125 44.54296875 C128.15733398 45.43628906 128.15733398 45.43628906 129.33007812 46.34765625 C130.05904297 46.91484375 130.78800781 47.48203125 131.5390625 48.06640625 C132.23257812 48.60233398 132.92609375 49.13826172 133.640625 49.69042969 C135.18977264 50.91629809 136.68491594 52.21005151 138.1640625 53.51953125 C143.2102809 57.06870486 150.35924255 56.47625305 156.35839844 56.80053711 C157.3349791 56.85599197 158.31155975 56.91144684 159.31773376 56.96858215 C161.43414185 57.08839196 163.55063398 57.20672432 165.66719818 57.32374382 C169.03331196 57.51008912 172.39915249 57.70081049 175.76495361 57.89271545 C185.33400639 58.43747126 194.90351426 58.97404024 204.47314453 59.50854492 C210.33530271 59.83627576 216.19717296 60.16882616 222.05890656 60.50406075 C224.27679212 60.62989939 226.49478309 60.75389604 228.712883 60.87589836 C239.02777303 61.44331146 249.33054603 62.04291734 259.60644531 63.12329102 C260.31820293 63.1946247 261.02996056 63.26595839 261.76328659 63.3394537 C276.42987179 65.00437392 289.21683389 74.01147869 298.5078125 85.16796875 C302.88802419 91.57454006 304.71519839 97.44572984 303.5078125 105.16796875 C303.4046875 105.93882812 303.3015625 106.7096875 303.1953125 107.50390625 C302.39263646 110.28317204 301.8174647 111.37810129 299.5078125 113.16796875 C295.91714005 113.91313373 292.53437277 114.35845065 288.87915039 114.51367188 C283.66202174 114.76757483 280.70287572 115.77378123 276.5078125 119.16796875 C273.12210783 123.00510071 272.99490078 126.80198337 273.15625 131.73046875 C273.81892645 136.3250255 276.03702473 139.05081302 279.65234375 141.796875 C282.67287635 143.24722649 285.06318556 143.4702407 288.38476562 143.57983398 C292.92476275 143.76830443 297.1316025 143.95381247 300.6640625 147.0703125 C303.77412403 152.93784137 303.9665826 159.40037126 304.1328125 165.91796875 C304.15666016 166.72161865 304.18050781 167.52526855 304.20507812 168.35327148 C304.1342241 173.39276375 303.14262592 176.59995605 300.16552734 180.66894531 C294.62730007 185.67700355 289.21341721 185.51377007 282.17578125 185.328125 C280.13998498 185.31628314 278.10417531 185.30658455 276.06835938 185.29882812 C272.88120844 185.27209069 269.69679793 185.23050576 266.51049805 185.15112305 C254.32902717 184.41948391 254.32902717 184.41948391 243.22241211 188.32250977 C241.00219655 190.82716249 239.31193229 193.36005299 237.5078125 196.16796875 C226.37102241 205.80259744 211.92383632 210.82819929 197.22265625 210.41015625 C181.23190297 208.98364301 167.56938573 202.8924078 156.5078125 191.16796875 C155.95283679 190.31115729 155.39786108 189.45434584 154.82606792 188.5715704 C152.67079383 185.87903834 152.67079383 185.87903834 149.26086903 185.52479649 C147.31498402 185.51222765 147.31498402 185.51222765 145.32978821 185.49940491 C144.24387832 185.48241323 144.24387832 185.48241323 143.13603085 185.46507829 C140.70917866 185.43341645 138.28372536 185.43752144 135.85668945 185.44165039 C134.11701146 185.42668971 132.37735008 185.40967641 130.63771057 185.39076233 C125.91013262 185.34655735 121.18300702 185.33487149 116.4552424 185.3316834 C113.50023138 185.32812998 110.54533545 185.31745667 107.59035301 185.30419731 C97.2770393 185.25792194 86.96404885 185.23752297 76.65063477 185.24145508 C67.04463342 185.24445644 57.44003841 185.191754 47.83439285 185.11273676 C39.58279275 185.04728317 31.33165125 185.02053882 23.07979363 185.02373213 C18.15335863 185.02500535 13.22817215 185.01085209 8.30199623 184.95784187 C3.66457027 184.90930355 -0.97042137 184.90912058 -5.60793495 184.94542503 C-7.30544225 184.9506394 -9.00310308 184.93892515 -10.7003479 184.90862274 C-20.07775695 184.5835665 -20.07775695 184.5835665 -28.38819313 188.34139824 C-30.78752049 190.9243634 -30.78752049 190.9243634 -32.66160297 193.65085506 C-39.18544564 202.62135242 -51.59351745 207.34308019 -62.1171875 209.48046875 C-77.71316534 211.79428001 -92.06168909 208.50192958 -105.4921875 200.16796875 C-109.93302171 196.74653447 -114.09727856 193.23734449 -117.2454071 188.56703186 C-119.28229352 185.93829389 -119.28229352 185.93829389 -122.27986145 185.5556488 C-123.88700264 185.56375328 -123.88700264 185.56375328 -125.52661133 185.57202148 C-126.74500198 185.56528915 -127.96339264 185.55855682 -129.21870422 185.55162048 C-130.53227402 185.56810135 -131.84584381 185.58458221 -133.19921875 185.6015625 C-134.56679636 185.59860056 -135.93437051 185.59286629 -137.30192566 185.58448792 C-141.63640182 185.56375477 -145.97025267 185.58339285 -150.3046875 185.60546875 C-155.31951913 185.62662427 -160.33369795 185.63102034 -165.34851646 185.60496712 C-167.34866392 185.60162607 -169.34880318 185.62325673 -171.34883118 185.64537048 C-178.25254559 185.62524056 -182.9758233 185.50884978 -188.4921875 181.16796875 C-189.99487305 179.54589844 -189.99487305 179.54589844 -190.94140625 177.83984375 C-191.33505371 177.14310547 -191.72870117 176.44636719 -192.13427734 175.72851562 C-192.5823877 174.88353516 -193.03049805 174.03855469 -193.4921875 173.16796875 C-194.08338379 172.09095703 -194.67458008 171.01394531 -195.28369141 169.90429688 C-196.99520082 166.76163225 -198.64674509 163.59117364 -200.27807617 160.40625 C-200.96146801 159.08269635 -201.65483793 157.76424642 -202.3581543 156.45117188 C-208.37637261 145.20405582 -210.36913965 136.24385826 -206.71484375 123.71484375 C-206.47636719 122.956875 -206.23789063 122.19890625 -205.9921875 121.41796875 C-205.75371094 120.61359375 -205.51523438 119.80921875 -205.26953125 118.98046875 C-204.69159164 117.03859167 -204.09406082 115.10256155 -203.4921875 113.16796875 C-202.72140869 113.15338623 -201.95062988 113.13880371 -201.15649414 113.1237793 C-197.62208577 113.04873709 -194.08856443 112.95226228 -190.5546875 112.85546875 C-189.34232422 112.83291016 -188.12996094 112.81035156 -186.88085938 112.78710938 C-174.88316321 112.56027874 -174.88316321 112.56027874 -164.9921875 106.60546875 C-162.02316465 101.78080662 -161.87152452 97.77979651 -162.4921875 92.16796875 C-164.6856256 87.69985409 -166.97923887 85.25933519 -171.4921875 83.16796875 C-175.08813809 82.30169064 -178.53911928 81.98974136 -182.23046875 81.8515625 C-183.29716797 81.80966797 -184.36386719 81.76777344 -185.46289062 81.72460938 C-186.56568359 81.68529297 -187.66847656 81.64597656 -188.8046875 81.60546875 C-190.48788086 81.54069336 -190.48788086 81.54069336 -192.20507812 81.47460938 C-194.96733319 81.36882088 -197.7296738 81.26673203 -200.4921875 81.16796875 C-200.60900562 77.62658257 -200.6796425 74.08569635 -200.7421875 70.54296875 C-200.79246094 69.04443359 -200.79246094 69.04443359 -200.84375 67.515625 C-200.92541725 61.34974783 -200.56311826 57.88410363 -196.4921875 53.16796875 C-196.0384375 52.59046875 -195.5846875 52.01296875 -195.1171875 51.41796875 C-189.76916986 47.30410903 -182.95287149 47.85560156 -176.5546875 47.73046875 C-154.12007877 47.01119122 -132.04691158 44.02193971 -111.11328125 35.625 C-110.25510803 35.28087067 -109.39693481 34.93674133 -108.51275635 34.58218384 C-98.95026901 30.65849976 -89.8614179 25.88976814 -80.7421875 21.04296875 C-66.27958917 13.36015849 -51.92745833 5.91370215 -35.6796875 2.85546875 C-34.5669043 2.6224707 -34.5669043 2.6224707 -33.43164062 2.38476562 C-22.36009534 0.16664864 -11.25716002 0.005848 0 0 Z M-2.93943787 37.63684082 C-4.4227107 40.38475701 -5.47128974 43.22157753 -6.4921875 46.16796875 C-7.45552639 47.91782461 -8.44809316 49.65256406 -9.4921875 51.35546875 C-11.10964587 54.09991459 -11.10964587 54.09991459 -11.4921875 57.16796875 C-2.5535965 57.19147873 6.38498333 57.20907551 15.32359886 57.21978092 C19.47729993 57.2249274 23.63097935 57.23186845 27.78466797 57.2434082 C47.38625956 57.2964679 66.92502647 57.16158401 86.5078125 56.16796875 C81.90828341 51.45390753 76.99788226 47.51177898 71.7578125 43.54296875 C70.901875 42.87523437 70.0459375 42.2075 69.1640625 41.51953125 C67.88789063 40.55273438 67.88789063 40.55273438 66.5859375 39.56640625 C65.82700195 38.98552246 65.06806641 38.40463867 64.28613281 37.80615234 C53.86418985 31.66105241 42.21181254 32.36831933 30.47875977 32.22753906 C28.12068206 32.18778428 25.76291582 32.1193514 23.40649414 32.02246094 C8.68698715 30.56851203 8.68698715 30.56851203 -2.93943787 37.63684082 Z M-92.046875 140.0703125 C-96.31577977 146.26599321 -96.44920464 152.87600632 -95.4921875 160.16796875 C-92.96780972 166.82477992 -88.86702068 171.93842771 -82.4921875 175.16796875 C-75.66505609 178.00187236 -68.97384762 177.54749446 -62.1796875 174.85546875 C-55.99174177 170.97001445 -51.96687436 167.16605865 -49.4921875 160.16796875 C-48.54435328 153.48410332 -48.56380613 146.8719581 -52.08984375 140.94921875 C-55.97739495 136.01127071 -60.4519674 132.08492483 -66.4921875 130.16796875 C-77.92663847 128.81160629 -84.67036239 131.44150821 -92.046875 140.0703125 Z M179.953125 140.0703125 C175.68422023 146.26599321 175.55079536 152.87600632 176.5078125 160.16796875 C179.03219028 166.82477992 183.13297932 171.93842771 189.5078125 175.16796875 C196.33494391 178.00187236 203.02615238 177.54749446 209.8203125 174.85546875 C216.00825823 170.97001445 220.03312564 167.16605865 222.5078125 160.16796875 C223.45564672 153.48410332 223.43619387 146.8719581 219.91015625 140.94921875 C216.02260505 136.01127071 211.5480326 132.08492483 205.5078125 130.16796875 C194.07336153 128.81160629 187.32963761 131.44150821 179.953125 140.0703125 Z " fill="#000000" transform="translate(208.4921875,150.83203125)"/>
</svg>
